<mxfile host="app.diagrams.net" modified="2024-03-11T00:25:52.802Z" agent="Mozilla/5.0 (Windows NT 10.0; Win64; x64) AppleWebKit/537.36 (KHTML, like Gecko) Chrome/122.0.0.0 Safari/537.36" etag="ykmoLloK3CQxNNfY3zIz" version="24.0.4" type="device">
  <diagram name="Page-1" id="2YBvvXClWsGukQMizWep">
    <mxGraphModel dx="2580" dy="1114" grid="1" gridSize="10" guides="1" tooltips="1" connect="1" arrows="1" fold="1" page="1" pageScale="1" pageWidth="850" pageHeight="1100" math="0" shadow="0">
      <root>
        <mxCell id="0" />
        <mxCell id="1" parent="0" />
        <mxCell id="aM9ryv3xv72pqoxQDRHE-1" value="User" style="shape=umlLifeline;perimeter=lifelinePerimeter;whiteSpace=wrap;html=1;container=0;dropTarget=0;collapsible=0;recursiveResize=0;outlineConnect=0;portConstraint=eastwest;newEdgeStyle={&quot;edgeStyle&quot;:&quot;elbowEdgeStyle&quot;,&quot;elbow&quot;:&quot;vertical&quot;,&quot;curved&quot;:0,&quot;rounded&quot;:0};" parent="1" vertex="1">
          <mxGeometry x="40" y="40" width="100" height="970" as="geometry" />
        </mxCell>
        <mxCell id="aM9ryv3xv72pqoxQDRHE-2" value="" style="html=1;points=[];perimeter=orthogonalPerimeter;outlineConnect=0;targetShapes=umlLifeline;portConstraint=eastwest;newEdgeStyle={&quot;edgeStyle&quot;:&quot;elbowEdgeStyle&quot;,&quot;elbow&quot;:&quot;vertical&quot;,&quot;curved&quot;:0,&quot;rounded&quot;:0};" parent="aM9ryv3xv72pqoxQDRHE-1" vertex="1">
          <mxGeometry x="45" y="70" width="10" height="900" as="geometry" />
        </mxCell>
        <mxCell id="aM9ryv3xv72pqoxQDRHE-5" value="MinesweeperGame" style="shape=umlLifeline;perimeter=lifelinePerimeter;whiteSpace=wrap;html=1;container=0;dropTarget=0;collapsible=0;recursiveResize=0;outlineConnect=0;portConstraint=eastwest;newEdgeStyle={&quot;edgeStyle&quot;:&quot;elbowEdgeStyle&quot;,&quot;elbow&quot;:&quot;vertical&quot;,&quot;curved&quot;:0,&quot;rounded&quot;:0};" parent="1" vertex="1">
          <mxGeometry x="220" y="40" width="100" height="980" as="geometry" />
        </mxCell>
        <mxCell id="aM9ryv3xv72pqoxQDRHE-6" value="" style="html=1;points=[];perimeter=orthogonalPerimeter;outlineConnect=0;targetShapes=umlLifeline;portConstraint=eastwest;newEdgeStyle={&quot;edgeStyle&quot;:&quot;elbowEdgeStyle&quot;,&quot;elbow&quot;:&quot;vertical&quot;,&quot;curved&quot;:0,&quot;rounded&quot;:0};" parent="aM9ryv3xv72pqoxQDRHE-5" vertex="1">
          <mxGeometry x="45" y="80" width="10" height="900" as="geometry" />
        </mxCell>
        <mxCell id="aChDN-awmb8kZ2AirOsY-59" value="" style="html=1;points=[[0,0,0,0,5],[0,1,0,0,-5],[1,0,0,0,5],[1,1,0,0,-5]];perimeter=orthogonalPerimeter;outlineConnect=0;targetShapes=umlLifeline;portConstraint=eastwest;newEdgeStyle={&quot;curved&quot;:0,&quot;rounded&quot;:0};" vertex="1" parent="aM9ryv3xv72pqoxQDRHE-5">
          <mxGeometry x="55" y="480" width="10" height="20" as="geometry" />
        </mxCell>
        <mxCell id="aChDN-awmb8kZ2AirOsY-60" value="generate board" style="html=1;align=left;spacingLeft=2;endArrow=block;rounded=0;edgeStyle=orthogonalEdgeStyle;curved=0;rounded=0;" edge="1" parent="aM9ryv3xv72pqoxQDRHE-5">
          <mxGeometry x="-0.6471" relative="1" as="geometry">
            <mxPoint x="55" y="470" as="sourcePoint" />
            <Array as="points">
              <mxPoint x="85" y="500" />
            </Array>
            <mxPoint x="59.999999999999886" y="500" as="targetPoint" />
            <mxPoint as="offset" />
          </mxGeometry>
        </mxCell>
        <mxCell id="aM9ryv3xv72pqoxQDRHE-7" value="start()" style="html=1;verticalAlign=bottom;endArrow=block;edgeStyle=elbowEdgeStyle;elbow=vertical;curved=0;rounded=0;" parent="1" source="aM9ryv3xv72pqoxQDRHE-2" target="aM9ryv3xv72pqoxQDRHE-6" edge="1">
          <mxGeometry relative="1" as="geometry">
            <mxPoint x="195" y="130" as="sourcePoint" />
            <Array as="points">
              <mxPoint x="180" y="120" />
            </Array>
          </mxGeometry>
        </mxCell>
        <mxCell id="aM9ryv3xv72pqoxQDRHE-8" value="true" style="html=1;verticalAlign=bottom;endArrow=open;dashed=1;endSize=8;edgeStyle=elbowEdgeStyle;elbow=vertical;curved=0;rounded=0;" parent="1" source="aChDN-awmb8kZ2AirOsY-1" edge="1">
          <mxGeometry x="-0.0037" relative="1" as="geometry">
            <mxPoint x="270" y="150" as="targetPoint" />
            <Array as="points">
              <mxPoint x="365" y="150" />
            </Array>
            <mxPoint x="440" y="150" as="sourcePoint" />
            <mxPoint as="offset" />
          </mxGeometry>
        </mxCell>
        <mxCell id="aM9ryv3xv72pqoxQDRHE-10" value="return" style="html=1;verticalAlign=bottom;endArrow=open;dashed=1;endSize=8;edgeStyle=elbowEdgeStyle;elbow=vertical;curved=0;rounded=0;" parent="1" target="aM9ryv3xv72pqoxQDRHE-6" edge="1">
          <mxGeometry relative="1" as="geometry">
            <mxPoint x="175" y="235" as="targetPoint" />
            <Array as="points">
              <mxPoint x="180" y="230" />
            </Array>
            <mxPoint x="100" y="230" as="sourcePoint" />
          </mxGeometry>
        </mxCell>
        <mxCell id="aChDN-awmb8kZ2AirOsY-1" value="GameState" style="shape=umlLifeline;perimeter=lifelinePerimeter;whiteSpace=wrap;html=1;container=0;dropTarget=0;collapsible=0;recursiveResize=0;outlineConnect=0;portConstraint=eastwest;newEdgeStyle={&quot;edgeStyle&quot;:&quot;elbowEdgeStyle&quot;,&quot;elbow&quot;:&quot;vertical&quot;,&quot;curved&quot;:0,&quot;rounded&quot;:0};" vertex="1" parent="1">
          <mxGeometry x="330" y="40" width="100" height="980" as="geometry" />
        </mxCell>
        <mxCell id="aChDN-awmb8kZ2AirOsY-2" value="" style="html=1;points=[];perimeter=orthogonalPerimeter;outlineConnect=0;targetShapes=umlLifeline;portConstraint=eastwest;newEdgeStyle={&quot;edgeStyle&quot;:&quot;elbowEdgeStyle&quot;,&quot;elbow&quot;:&quot;vertical&quot;,&quot;curved&quot;:0,&quot;rounded&quot;:0};" vertex="1" parent="aChDN-awmb8kZ2AirOsY-1">
          <mxGeometry x="45" y="80" width="10" height="900" as="geometry" />
        </mxCell>
        <mxCell id="aChDN-awmb8kZ2AirOsY-3" value="Caretaker" style="shape=umlLifeline;perimeter=lifelinePerimeter;whiteSpace=wrap;html=1;container=0;dropTarget=0;collapsible=0;recursiveResize=0;outlineConnect=0;portConstraint=eastwest;newEdgeStyle={&quot;edgeStyle&quot;:&quot;elbowEdgeStyle&quot;,&quot;elbow&quot;:&quot;vertical&quot;,&quot;curved&quot;:0,&quot;rounded&quot;:0};" vertex="1" parent="1">
          <mxGeometry x="440" y="40" width="100" height="980" as="geometry" />
        </mxCell>
        <mxCell id="aChDN-awmb8kZ2AirOsY-4" value="" style="html=1;points=[];perimeter=orthogonalPerimeter;outlineConnect=0;targetShapes=umlLifeline;portConstraint=eastwest;newEdgeStyle={&quot;edgeStyle&quot;:&quot;elbowEdgeStyle&quot;,&quot;elbow&quot;:&quot;vertical&quot;,&quot;curved&quot;:0,&quot;rounded&quot;:0};" vertex="1" parent="aChDN-awmb8kZ2AirOsY-3">
          <mxGeometry x="45" y="80" width="10" height="900" as="geometry" />
        </mxCell>
        <mxCell id="aChDN-awmb8kZ2AirOsY-5" value="CurrentScore" style="shape=umlLifeline;perimeter=lifelinePerimeter;whiteSpace=wrap;html=1;container=0;dropTarget=0;collapsible=0;recursiveResize=0;outlineConnect=0;portConstraint=eastwest;newEdgeStyle={&quot;edgeStyle&quot;:&quot;elbowEdgeStyle&quot;,&quot;elbow&quot;:&quot;vertical&quot;,&quot;curved&quot;:0,&quot;rounded&quot;:0};" vertex="1" parent="1">
          <mxGeometry x="550" y="40" width="100" height="980" as="geometry" />
        </mxCell>
        <mxCell id="aChDN-awmb8kZ2AirOsY-6" value="" style="html=1;points=[];perimeter=orthogonalPerimeter;outlineConnect=0;targetShapes=umlLifeline;portConstraint=eastwest;newEdgeStyle={&quot;edgeStyle&quot;:&quot;elbowEdgeStyle&quot;,&quot;elbow&quot;:&quot;vertical&quot;,&quot;curved&quot;:0,&quot;rounded&quot;:0};" vertex="1" parent="aChDN-awmb8kZ2AirOsY-5">
          <mxGeometry x="45" y="80" width="10" height="900" as="geometry" />
        </mxCell>
        <mxCell id="aChDN-awmb8kZ2AirOsY-7" value="Highscore&lt;span style=&quot;color: rgba(0, 0, 0, 0); font-family: monospace; font-size: 0px; text-align: start; text-wrap: nowrap;&quot;&gt;%3CmxGraphModel%3E%3Croot%3E%3CmxCell%20id%3D%220%22%2F%3E%3CmxCell%20id%3D%221%22%20parent%3D%220%22%2F%3E%3CmxCell%20id%3D%222%22%20value%3D%22CurrentScore%22%20style%3D%22shape%3DumlLifeline%3Bperimeter%3DlifelinePerimeter%3BwhiteSpace%3Dwrap%3Bhtml%3D1%3Bcontainer%3D0%3BdropTarget%3D0%3Bcollapsible%3D0%3BrecursiveResize%3D0%3BoutlineConnect%3D0%3BportConstraint%3Deastwest%3BnewEdgeStyle%3D%7B%26quot%3BedgeStyle%26quot%3B%3A%26quot%3BelbowEdgeStyle%26quot%3B%2C%26quot%3Belbow%26quot%3B%3A%26quot%3Bvertical%26quot%3B%2C%26quot%3Bcurved%26quot%3B%3A0%2C%26quot%3Brounded%26quot%3B%3A0%7D%3B%22%20vertex%3D%221%22%20parent%3D%221%22%3E%3CmxGeometry%20x%3D%22550%22%20y%3D%2240%22%20width%3D%22100%22%20height%3D%22300%22%20as%3D%22geometry%22%2F%3E%3C%2FmxCell%3E%3CmxCell%20id%3D%223%22%20value%3D%22%22%20style%3D%22html%3D1%3Bpoints%3D%5B%5D%3Bperimeter%3DorthogonalPerimeter%3BoutlineConnect%3D0%3BtargetShapes%3DumlLifeline%3BportConstraint%3Deastwest%3BnewEdgeStyle%3D%7B%26quot%3BedgeStyle%26quot%3B%3A%26quot%3BelbowEdgeStyle%26quot%3B%2C%26quot%3Belbow%26quot%3B%3A%26quot%3Bvertical%26quot%3B%2C%26quot%3Bcurved%26quot%3B%3A0%2C%26quot%3Brounded%26quot%3B%3A0%7D%3B%22%20vertex%3D%221%22%20parent%3D%222%22%3E%3CmxGeometry%20x%3D%2245%22%20y%3D%2280%22%20width%3D%2210%22%20height%3D%22170%22%20as%3D%22geometry%22%2F%3E%3C%2FmxCell%3E%3C%2Froot%3E%3C%2FmxGraphModel%3E&lt;/span&gt;" style="shape=umlLifeline;perimeter=lifelinePerimeter;whiteSpace=wrap;html=1;container=0;dropTarget=0;collapsible=0;recursiveResize=0;outlineConnect=0;portConstraint=eastwest;newEdgeStyle={&quot;edgeStyle&quot;:&quot;elbowEdgeStyle&quot;,&quot;elbow&quot;:&quot;vertical&quot;,&quot;curved&quot;:0,&quot;rounded&quot;:0};" vertex="1" parent="1">
          <mxGeometry x="660" y="40" width="100" height="980" as="geometry" />
        </mxCell>
        <mxCell id="aChDN-awmb8kZ2AirOsY-8" value="" style="html=1;points=[];perimeter=orthogonalPerimeter;outlineConnect=0;targetShapes=umlLifeline;portConstraint=eastwest;newEdgeStyle={&quot;edgeStyle&quot;:&quot;elbowEdgeStyle&quot;,&quot;elbow&quot;:&quot;vertical&quot;,&quot;curved&quot;:0,&quot;rounded&quot;:0};" vertex="1" parent="aChDN-awmb8kZ2AirOsY-7">
          <mxGeometry x="45" y="80" width="10" height="900" as="geometry" />
        </mxCell>
        <mxCell id="aChDN-awmb8kZ2AirOsY-9" value="Stopwatch" style="shape=umlLifeline;perimeter=lifelinePerimeter;whiteSpace=wrap;html=1;container=0;dropTarget=0;collapsible=0;recursiveResize=0;outlineConnect=0;portConstraint=eastwest;newEdgeStyle={&quot;edgeStyle&quot;:&quot;elbowEdgeStyle&quot;,&quot;elbow&quot;:&quot;vertical&quot;,&quot;curved&quot;:0,&quot;rounded&quot;:0};" vertex="1" parent="1">
          <mxGeometry x="770" y="40" width="100" height="980" as="geometry" />
        </mxCell>
        <mxCell id="aChDN-awmb8kZ2AirOsY-10" value="" style="html=1;points=[];perimeter=orthogonalPerimeter;outlineConnect=0;targetShapes=umlLifeline;portConstraint=eastwest;newEdgeStyle={&quot;edgeStyle&quot;:&quot;elbowEdgeStyle&quot;,&quot;elbow&quot;:&quot;vertical&quot;,&quot;curved&quot;:0,&quot;rounded&quot;:0};" vertex="1" parent="aChDN-awmb8kZ2AirOsY-9">
          <mxGeometry x="45" y="80" width="10" height="900" as="geometry" />
        </mxCell>
        <mxCell id="aChDN-awmb8kZ2AirOsY-11" value="Startpage" style="shape=umlLifeline;perimeter=lifelinePerimeter;whiteSpace=wrap;html=1;container=0;dropTarget=0;collapsible=0;recursiveResize=0;outlineConnect=0;portConstraint=eastwest;newEdgeStyle={&quot;edgeStyle&quot;:&quot;elbowEdgeStyle&quot;,&quot;elbow&quot;:&quot;vertical&quot;,&quot;curved&quot;:0,&quot;rounded&quot;:0};" vertex="1" parent="1">
          <mxGeometry x="880" y="40" width="100" height="980" as="geometry" />
        </mxCell>
        <mxCell id="aChDN-awmb8kZ2AirOsY-12" value="" style="html=1;points=[];perimeter=orthogonalPerimeter;outlineConnect=0;targetShapes=umlLifeline;portConstraint=eastwest;newEdgeStyle={&quot;edgeStyle&quot;:&quot;elbowEdgeStyle&quot;,&quot;elbow&quot;:&quot;vertical&quot;,&quot;curved&quot;:0,&quot;rounded&quot;:0};" vertex="1" parent="aChDN-awmb8kZ2AirOsY-11">
          <mxGeometry x="45" y="80" width="10" height="900" as="geometry" />
        </mxCell>
        <mxCell id="aChDN-awmb8kZ2AirOsY-13" value="Startpage" style="shape=umlLifeline;perimeter=lifelinePerimeter;whiteSpace=wrap;html=1;container=0;dropTarget=0;collapsible=0;recursiveResize=0;outlineConnect=0;portConstraint=eastwest;newEdgeStyle={&quot;edgeStyle&quot;:&quot;elbowEdgeStyle&quot;,&quot;elbow&quot;:&quot;vertical&quot;,&quot;curved&quot;:0,&quot;rounded&quot;:0};" vertex="1" parent="1">
          <mxGeometry x="990" y="40" width="100" height="980" as="geometry" />
        </mxCell>
        <mxCell id="aChDN-awmb8kZ2AirOsY-14" value="" style="html=1;points=[];perimeter=orthogonalPerimeter;outlineConnect=0;targetShapes=umlLifeline;portConstraint=eastwest;newEdgeStyle={&quot;edgeStyle&quot;:&quot;elbowEdgeStyle&quot;,&quot;elbow&quot;:&quot;vertical&quot;,&quot;curved&quot;:0,&quot;rounded&quot;:0};" vertex="1" parent="aChDN-awmb8kZ2AirOsY-13">
          <mxGeometry x="45" y="80" width="10" height="900" as="geometry" />
        </mxCell>
        <mxCell id="aChDN-awmb8kZ2AirOsY-15" value="Menu" style="shape=umlLifeline;perimeter=lifelinePerimeter;whiteSpace=wrap;html=1;container=0;dropTarget=0;collapsible=0;recursiveResize=0;outlineConnect=0;portConstraint=eastwest;newEdgeStyle={&quot;edgeStyle&quot;:&quot;elbowEdgeStyle&quot;,&quot;elbow&quot;:&quot;vertical&quot;,&quot;curved&quot;:0,&quot;rounded&quot;:0};" vertex="1" parent="1">
          <mxGeometry x="1100" y="40" width="100" height="980" as="geometry" />
        </mxCell>
        <mxCell id="aChDN-awmb8kZ2AirOsY-16" value="" style="html=1;points=[];perimeter=orthogonalPerimeter;outlineConnect=0;targetShapes=umlLifeline;portConstraint=eastwest;newEdgeStyle={&quot;edgeStyle&quot;:&quot;elbowEdgeStyle&quot;,&quot;elbow&quot;:&quot;vertical&quot;,&quot;curved&quot;:0,&quot;rounded&quot;:0};" vertex="1" parent="aChDN-awmb8kZ2AirOsY-15">
          <mxGeometry x="45" y="80" width="10" height="900" as="geometry" />
        </mxCell>
        <mxCell id="aChDN-awmb8kZ2AirOsY-17" value="KeyBinds" style="shape=umlLifeline;perimeter=lifelinePerimeter;whiteSpace=wrap;html=1;container=0;dropTarget=0;collapsible=0;recursiveResize=0;outlineConnect=0;portConstraint=eastwest;newEdgeStyle={&quot;edgeStyle&quot;:&quot;elbowEdgeStyle&quot;,&quot;elbow&quot;:&quot;vertical&quot;,&quot;curved&quot;:0,&quot;rounded&quot;:0};" vertex="1" parent="1">
          <mxGeometry x="1210" y="40" width="100" height="980" as="geometry" />
        </mxCell>
        <mxCell id="aChDN-awmb8kZ2AirOsY-18" value="" style="html=1;points=[];perimeter=orthogonalPerimeter;outlineConnect=0;targetShapes=umlLifeline;portConstraint=eastwest;newEdgeStyle={&quot;edgeStyle&quot;:&quot;elbowEdgeStyle&quot;,&quot;elbow&quot;:&quot;vertical&quot;,&quot;curved&quot;:0,&quot;rounded&quot;:0};" vertex="1" parent="aChDN-awmb8kZ2AirOsY-17">
          <mxGeometry x="45" y="80" width="10" height="900" as="geometry" />
        </mxCell>
        <mxCell id="aChDN-awmb8kZ2AirOsY-19" value="Rules" style="shape=umlLifeline;perimeter=lifelinePerimeter;whiteSpace=wrap;html=1;container=0;dropTarget=0;collapsible=0;recursiveResize=0;outlineConnect=0;portConstraint=eastwest;newEdgeStyle={&quot;edgeStyle&quot;:&quot;elbowEdgeStyle&quot;,&quot;elbow&quot;:&quot;vertical&quot;,&quot;curved&quot;:0,&quot;rounded&quot;:0};" vertex="1" parent="1">
          <mxGeometry x="1320" y="40" width="100" height="980" as="geometry" />
        </mxCell>
        <mxCell id="aChDN-awmb8kZ2AirOsY-20" value="" style="html=1;points=[];perimeter=orthogonalPerimeter;outlineConnect=0;targetShapes=umlLifeline;portConstraint=eastwest;newEdgeStyle={&quot;edgeStyle&quot;:&quot;elbowEdgeStyle&quot;,&quot;elbow&quot;:&quot;vertical&quot;,&quot;curved&quot;:0,&quot;rounded&quot;:0};" vertex="1" parent="aChDN-awmb8kZ2AirOsY-19">
          <mxGeometry x="45" y="80" width="10" height="900" as="geometry" />
        </mxCell>
        <mxCell id="aChDN-awmb8kZ2AirOsY-21" value="IDifficulty" style="shape=umlLifeline;perimeter=lifelinePerimeter;whiteSpace=wrap;html=1;container=0;dropTarget=0;collapsible=0;recursiveResize=0;outlineConnect=0;portConstraint=eastwest;newEdgeStyle={&quot;edgeStyle&quot;:&quot;elbowEdgeStyle&quot;,&quot;elbow&quot;:&quot;vertical&quot;,&quot;curved&quot;:0,&quot;rounded&quot;:0};" vertex="1" parent="1">
          <mxGeometry x="1430" y="40" width="100" height="980" as="geometry" />
        </mxCell>
        <mxCell id="aChDN-awmb8kZ2AirOsY-22" value="" style="html=1;points=[];perimeter=orthogonalPerimeter;outlineConnect=0;targetShapes=umlLifeline;portConstraint=eastwest;newEdgeStyle={&quot;edgeStyle&quot;:&quot;elbowEdgeStyle&quot;,&quot;elbow&quot;:&quot;vertical&quot;,&quot;curved&quot;:0,&quot;rounded&quot;:0};" vertex="1" parent="aChDN-awmb8kZ2AirOsY-21">
          <mxGeometry x="45" y="80" width="10" height="900" as="geometry" />
        </mxCell>
        <mxCell id="aChDN-awmb8kZ2AirOsY-23" value="EasyMode" style="shape=umlLifeline;perimeter=lifelinePerimeter;whiteSpace=wrap;html=1;container=0;dropTarget=0;collapsible=0;recursiveResize=0;outlineConnect=0;portConstraint=eastwest;newEdgeStyle={&quot;edgeStyle&quot;:&quot;elbowEdgeStyle&quot;,&quot;elbow&quot;:&quot;vertical&quot;,&quot;curved&quot;:0,&quot;rounded&quot;:0};" vertex="1" parent="1">
          <mxGeometry x="1540" y="40" width="100" height="980" as="geometry" />
        </mxCell>
        <mxCell id="aChDN-awmb8kZ2AirOsY-24" value="" style="html=1;points=[];perimeter=orthogonalPerimeter;outlineConnect=0;targetShapes=umlLifeline;portConstraint=eastwest;newEdgeStyle={&quot;edgeStyle&quot;:&quot;elbowEdgeStyle&quot;,&quot;elbow&quot;:&quot;vertical&quot;,&quot;curved&quot;:0,&quot;rounded&quot;:0};" vertex="1" parent="aChDN-awmb8kZ2AirOsY-23">
          <mxGeometry x="45" y="80" width="10" height="900" as="geometry" />
        </mxCell>
        <mxCell id="aChDN-awmb8kZ2AirOsY-25" value="MediumMode" style="shape=umlLifeline;perimeter=lifelinePerimeter;whiteSpace=wrap;html=1;container=0;dropTarget=0;collapsible=0;recursiveResize=0;outlineConnect=0;portConstraint=eastwest;newEdgeStyle={&quot;edgeStyle&quot;:&quot;elbowEdgeStyle&quot;,&quot;elbow&quot;:&quot;vertical&quot;,&quot;curved&quot;:0,&quot;rounded&quot;:0};" vertex="1" parent="1">
          <mxGeometry x="1650" y="40" width="100" height="980" as="geometry" />
        </mxCell>
        <mxCell id="aChDN-awmb8kZ2AirOsY-26" value="" style="html=1;points=[];perimeter=orthogonalPerimeter;outlineConnect=0;targetShapes=umlLifeline;portConstraint=eastwest;newEdgeStyle={&quot;edgeStyle&quot;:&quot;elbowEdgeStyle&quot;,&quot;elbow&quot;:&quot;vertical&quot;,&quot;curved&quot;:0,&quot;rounded&quot;:0};" vertex="1" parent="aChDN-awmb8kZ2AirOsY-25">
          <mxGeometry x="45" y="80" width="10" height="900" as="geometry" />
        </mxCell>
        <mxCell id="aChDN-awmb8kZ2AirOsY-27" value="HardMode" style="shape=umlLifeline;perimeter=lifelinePerimeter;whiteSpace=wrap;html=1;container=0;dropTarget=0;collapsible=0;recursiveResize=0;outlineConnect=0;portConstraint=eastwest;newEdgeStyle={&quot;edgeStyle&quot;:&quot;elbowEdgeStyle&quot;,&quot;elbow&quot;:&quot;vertical&quot;,&quot;curved&quot;:0,&quot;rounded&quot;:0};" vertex="1" parent="1">
          <mxGeometry x="1760" y="40" width="100" height="980" as="geometry" />
        </mxCell>
        <mxCell id="aChDN-awmb8kZ2AirOsY-28" value="" style="html=1;points=[];perimeter=orthogonalPerimeter;outlineConnect=0;targetShapes=umlLifeline;portConstraint=eastwest;newEdgeStyle={&quot;edgeStyle&quot;:&quot;elbowEdgeStyle&quot;,&quot;elbow&quot;:&quot;vertical&quot;,&quot;curved&quot;:0,&quot;rounded&quot;:0};" vertex="1" parent="aChDN-awmb8kZ2AirOsY-27">
          <mxGeometry x="45" y="80" width="10" height="900" as="geometry" />
        </mxCell>
        <mxCell id="aChDN-awmb8kZ2AirOsY-29" value="Model" style="shape=umlLifeline;perimeter=lifelinePerimeter;whiteSpace=wrap;html=1;container=0;dropTarget=0;collapsible=0;recursiveResize=0;outlineConnect=0;portConstraint=eastwest;newEdgeStyle={&quot;edgeStyle&quot;:&quot;elbowEdgeStyle&quot;,&quot;elbow&quot;:&quot;vertical&quot;,&quot;curved&quot;:0,&quot;rounded&quot;:0};" vertex="1" parent="1">
          <mxGeometry x="1870" y="40" width="100" height="980" as="geometry" />
        </mxCell>
        <mxCell id="aChDN-awmb8kZ2AirOsY-30" value="" style="html=1;points=[];perimeter=orthogonalPerimeter;outlineConnect=0;targetShapes=umlLifeline;portConstraint=eastwest;newEdgeStyle={&quot;edgeStyle&quot;:&quot;elbowEdgeStyle&quot;,&quot;elbow&quot;:&quot;vertical&quot;,&quot;curved&quot;:0,&quot;rounded&quot;:0};" vertex="1" parent="aChDN-awmb8kZ2AirOsY-29">
          <mxGeometry x="45" y="80" width="10" height="900" as="geometry" />
        </mxCell>
        <mxCell id="aChDN-awmb8kZ2AirOsY-31" value="FlagCounter" style="shape=umlLifeline;perimeter=lifelinePerimeter;whiteSpace=wrap;html=1;container=0;dropTarget=0;collapsible=0;recursiveResize=0;outlineConnect=0;portConstraint=eastwest;newEdgeStyle={&quot;edgeStyle&quot;:&quot;elbowEdgeStyle&quot;,&quot;elbow&quot;:&quot;vertical&quot;,&quot;curved&quot;:0,&quot;rounded&quot;:0};" vertex="1" parent="1">
          <mxGeometry x="1980" y="40" width="100" height="980" as="geometry" />
        </mxCell>
        <mxCell id="aChDN-awmb8kZ2AirOsY-32" value="" style="html=1;points=[];perimeter=orthogonalPerimeter;outlineConnect=0;targetShapes=umlLifeline;portConstraint=eastwest;newEdgeStyle={&quot;edgeStyle&quot;:&quot;elbowEdgeStyle&quot;,&quot;elbow&quot;:&quot;vertical&quot;,&quot;curved&quot;:0,&quot;rounded&quot;:0};" vertex="1" parent="aChDN-awmb8kZ2AirOsY-31">
          <mxGeometry x="45" y="80" width="10" height="900" as="geometry" />
        </mxCell>
        <mxCell id="aChDN-awmb8kZ2AirOsY-33" value="MinesField" style="shape=umlLifeline;perimeter=lifelinePerimeter;whiteSpace=wrap;html=1;container=0;dropTarget=0;collapsible=0;recursiveResize=0;outlineConnect=0;portConstraint=eastwest;newEdgeStyle={&quot;edgeStyle&quot;:&quot;elbowEdgeStyle&quot;,&quot;elbow&quot;:&quot;vertical&quot;,&quot;curved&quot;:0,&quot;rounded&quot;:0};" vertex="1" parent="1">
          <mxGeometry x="2090" y="40" width="100" height="980" as="geometry" />
        </mxCell>
        <mxCell id="aChDN-awmb8kZ2AirOsY-34" value="" style="html=1;points=[];perimeter=orthogonalPerimeter;outlineConnect=0;targetShapes=umlLifeline;portConstraint=eastwest;newEdgeStyle={&quot;edgeStyle&quot;:&quot;elbowEdgeStyle&quot;,&quot;elbow&quot;:&quot;vertical&quot;,&quot;curved&quot;:0,&quot;rounded&quot;:0};" vertex="1" parent="aChDN-awmb8kZ2AirOsY-33">
          <mxGeometry x="45" y="80" width="10" height="900" as="geometry" />
        </mxCell>
        <mxCell id="aChDN-awmb8kZ2AirOsY-35" value="Field" style="shape=umlLifeline;perimeter=lifelinePerimeter;whiteSpace=wrap;html=1;container=0;dropTarget=0;collapsible=0;recursiveResize=0;outlineConnect=0;portConstraint=eastwest;newEdgeStyle={&quot;edgeStyle&quot;:&quot;elbowEdgeStyle&quot;,&quot;elbow&quot;:&quot;vertical&quot;,&quot;curved&quot;:0,&quot;rounded&quot;:0};" vertex="1" parent="1">
          <mxGeometry x="2200" y="40" width="100" height="980" as="geometry" />
        </mxCell>
        <mxCell id="aChDN-awmb8kZ2AirOsY-36" value="" style="html=1;points=[];perimeter=orthogonalPerimeter;outlineConnect=0;targetShapes=umlLifeline;portConstraint=eastwest;newEdgeStyle={&quot;edgeStyle&quot;:&quot;elbowEdgeStyle&quot;,&quot;elbow&quot;:&quot;vertical&quot;,&quot;curved&quot;:0,&quot;rounded&quot;:0};" vertex="1" parent="aChDN-awmb8kZ2AirOsY-35">
          <mxGeometry x="45" y="80" width="10" height="900" as="geometry" />
        </mxCell>
        <mxCell id="aChDN-awmb8kZ2AirOsY-37" value="isPlaying()" style="html=1;verticalAlign=bottom;endArrow=block;edgeStyle=elbowEdgeStyle;elbow=vertical;curved=0;rounded=0;" edge="1" parent="1" target="aChDN-awmb8kZ2AirOsY-2">
          <mxGeometry relative="1" as="geometry">
            <mxPoint x="280" y="130" as="sourcePoint" />
            <Array as="points">
              <mxPoint x="355" y="130" />
            </Array>
            <mxPoint x="370" y="130" as="targetPoint" />
          </mxGeometry>
        </mxCell>
        <mxCell id="aChDN-awmb8kZ2AirOsY-38" value="initFields()" style="html=1;verticalAlign=bottom;endArrow=block;edgeStyle=elbowEdgeStyle;elbow=vertical;curved=0;rounded=0;" edge="1" parent="1" target="aChDN-awmb8kZ2AirOsY-29">
          <mxGeometry x="-0.9392" relative="1" as="geometry">
            <mxPoint x="269.875" y="170" as="sourcePoint" />
            <Array as="points">
              <mxPoint x="345" y="170" />
            </Array>
            <mxPoint x="365" y="170" as="targetPoint" />
            <mxPoint as="offset" />
          </mxGeometry>
        </mxCell>
        <mxCell id="aChDN-awmb8kZ2AirOsY-39" value="fields" style="html=1;verticalAlign=bottom;endArrow=open;dashed=1;endSize=8;edgeStyle=elbowEdgeStyle;elbow=vertical;curved=0;rounded=0;" edge="1" parent="1" source="aChDN-awmb8kZ2AirOsY-29">
          <mxGeometry x="0.9394" relative="1" as="geometry">
            <mxPoint x="270" y="189.55" as="targetPoint" />
            <Array as="points">
              <mxPoint x="365" y="189.55" />
            </Array>
            <mxPoint x="380" y="189.55" as="sourcePoint" />
            <mxPoint as="offset" />
          </mxGeometry>
        </mxCell>
        <mxCell id="aChDN-awmb8kZ2AirOsY-40" value="initMines()" style="html=1;verticalAlign=bottom;endArrow=block;edgeStyle=elbowEdgeStyle;elbow=vertical;curved=0;rounded=0;" edge="1" parent="1" target="aChDN-awmb8kZ2AirOsY-33">
          <mxGeometry x="-0.9568" relative="1" as="geometry">
            <mxPoint x="279.875" y="210" as="sourcePoint" />
            <Array as="points">
              <mxPoint x="355" y="210" />
            </Array>
            <mxPoint x="1930" y="210" as="targetPoint" />
            <mxPoint as="offset" />
          </mxGeometry>
        </mxCell>
        <mxCell id="aChDN-awmb8kZ2AirOsY-41" value="Model" style="html=1;verticalAlign=bottom;endArrow=open;dashed=1;endSize=8;edgeStyle=elbowEdgeStyle;elbow=vertical;curved=0;rounded=0;" edge="1" parent="1" source="aChDN-awmb8kZ2AirOsY-33">
          <mxGeometry x="0.9394" relative="1" as="geometry">
            <mxPoint x="270" y="230" as="targetPoint" />
            <Array as="points" />
            <mxPoint x="1920" y="230.45" as="sourcePoint" />
            <mxPoint as="offset" />
          </mxGeometry>
        </mxCell>
        <mxCell id="aChDN-awmb8kZ2AirOsY-43" value="start()" style="html=1;verticalAlign=bottom;endArrow=block;edgeStyle=elbowEdgeStyle;elbow=vertical;curved=0;rounded=0;" edge="1" parent="1" source="aM9ryv3xv72pqoxQDRHE-5">
          <mxGeometry x="-0.7778" relative="1" as="geometry">
            <mxPoint x="289.875" y="250" as="sourcePoint" />
            <Array as="points">
              <mxPoint x="365" y="250" />
            </Array>
            <mxPoint x="815.4285539899554" y="250" as="targetPoint" />
            <mxPoint as="offset" />
          </mxGeometry>
        </mxCell>
        <mxCell id="aChDN-awmb8kZ2AirOsY-44" value="passedTime()" style="html=1;verticalAlign=bottom;endArrow=open;dashed=1;endSize=8;edgeStyle=elbowEdgeStyle;elbow=vertical;curved=0;rounded=0;" edge="1" parent="1" source="aChDN-awmb8kZ2AirOsY-10">
          <mxGeometry x="0.7826" relative="1" as="geometry">
            <mxPoint x="260" y="270.43" as="targetPoint" />
            <Array as="points" />
            <mxPoint x="805.4285249255952" y="270" as="sourcePoint" />
            <mxPoint as="offset" />
          </mxGeometry>
        </mxCell>
        <mxCell id="aChDN-awmb8kZ2AirOsY-45" value="show menu" style="html=1;verticalAlign=bottom;endArrow=block;edgeStyle=elbowEdgeStyle;elbow=vertical;curved=0;rounded=0;" edge="1" parent="1">
          <mxGeometry relative="1" as="geometry">
            <mxPoint x="275" y="500.13380952380953" as="sourcePoint" />
            <Array as="points" />
            <mxPoint x="90" y="500" as="targetPoint" />
          </mxGeometry>
        </mxCell>
        <mxCell id="aChDN-awmb8kZ2AirOsY-46" value="start game" style="html=1;verticalAlign=bottom;endArrow=block;edgeStyle=elbowEdgeStyle;elbow=vertical;curved=0;rounded=0;" edge="1" parent="1">
          <mxGeometry relative="1" as="geometry">
            <mxPoint x="100" y="520" as="sourcePoint" />
            <Array as="points">
              <mxPoint x="185" y="520" />
            </Array>
            <mxPoint x="270" y="520" as="targetPoint" />
          </mxGeometry>
        </mxCell>
        <mxCell id="aChDN-awmb8kZ2AirOsY-47" value="selectDifficulty()" style="html=1;verticalAlign=bottom;endArrow=block;edgeStyle=elbowEdgeStyle;elbow=vertical;curved=0;rounded=0;" edge="1" parent="1" target="aChDN-awmb8kZ2AirOsY-15">
          <mxGeometry x="-0.8863" relative="1" as="geometry">
            <mxPoint x="270" y="310" as="sourcePoint" />
            <Array as="points">
              <mxPoint x="355" y="310" />
            </Array>
            <mxPoint x="440" y="310" as="targetPoint" />
            <mxPoint as="offset" />
          </mxGeometry>
        </mxCell>
        <mxCell id="aChDN-awmb8kZ2AirOsY-48" value="getWidth()" style="html=1;verticalAlign=bottom;endArrow=block;edgeStyle=elbowEdgeStyle;elbow=vertical;curved=0;rounded=0;" edge="1" parent="1" target="aChDN-awmb8kZ2AirOsY-21">
          <mxGeometry x="-0.6965" relative="1" as="geometry">
            <mxPoint x="1150" y="320" as="sourcePoint" />
            <Array as="points">
              <mxPoint x="1235" y="320" />
            </Array>
            <mxPoint x="1320" y="320" as="targetPoint" />
            <mxPoint as="offset" />
          </mxGeometry>
        </mxCell>
        <mxCell id="aChDN-awmb8kZ2AirOsY-49" value="width" style="html=1;verticalAlign=bottom;endArrow=open;dashed=1;endSize=8;edgeStyle=elbowEdgeStyle;elbow=vertical;curved=0;rounded=0;" edge="1" parent="1">
          <mxGeometry x="0.6965" relative="1" as="geometry">
            <mxPoint x="1150" y="340" as="targetPoint" />
            <Array as="points">
              <mxPoint x="1245" y="340" />
            </Array>
            <mxPoint x="1479.5" y="340" as="sourcePoint" />
            <mxPoint as="offset" />
          </mxGeometry>
        </mxCell>
        <mxCell id="aChDN-awmb8kZ2AirOsY-51" value="getHeight()" style="html=1;verticalAlign=bottom;endArrow=block;edgeStyle=elbowEdgeStyle;elbow=vertical;curved=0;rounded=0;" edge="1" parent="1">
          <mxGeometry x="-0.6965" relative="1" as="geometry">
            <mxPoint x="1150" y="360" as="sourcePoint" />
            <Array as="points">
              <mxPoint x="1235" y="360" />
            </Array>
            <mxPoint x="1480" y="360" as="targetPoint" />
            <mxPoint as="offset" />
          </mxGeometry>
        </mxCell>
        <mxCell id="aChDN-awmb8kZ2AirOsY-52" value="height" style="html=1;verticalAlign=bottom;endArrow=open;dashed=1;endSize=8;edgeStyle=elbowEdgeStyle;elbow=vertical;curved=0;rounded=0;" edge="1" parent="1">
          <mxGeometry x="0.6965" relative="1" as="geometry">
            <mxPoint x="1150" y="379.6" as="targetPoint" />
            <Array as="points">
              <mxPoint x="1245" y="379.6" />
            </Array>
            <mxPoint x="1479.5" y="379.6" as="sourcePoint" />
            <mxPoint as="offset" />
          </mxGeometry>
        </mxCell>
        <mxCell id="aChDN-awmb8kZ2AirOsY-53" value="getMines()" style="html=1;verticalAlign=bottom;endArrow=block;edgeStyle=elbowEdgeStyle;elbow=vertical;curved=0;rounded=0;" edge="1" parent="1">
          <mxGeometry x="-0.6965" relative="1" as="geometry">
            <mxPoint x="1150" y="400" as="sourcePoint" />
            <Array as="points">
              <mxPoint x="1235" y="400" />
            </Array>
            <mxPoint x="1480" y="400" as="targetPoint" />
            <mxPoint as="offset" />
          </mxGeometry>
        </mxCell>
        <mxCell id="aChDN-awmb8kZ2AirOsY-54" value="mines" style="html=1;verticalAlign=bottom;endArrow=open;dashed=1;endSize=8;edgeStyle=elbowEdgeStyle;elbow=vertical;curved=0;rounded=0;" edge="1" parent="1">
          <mxGeometry x="0.6965" relative="1" as="geometry">
            <mxPoint x="1150" y="420" as="targetPoint" />
            <Array as="points">
              <mxPoint x="1245" y="420" />
            </Array>
            <mxPoint x="1479.5" y="420" as="sourcePoint" />
            <mxPoint as="offset" />
          </mxGeometry>
        </mxCell>
        <mxCell id="aChDN-awmb8kZ2AirOsY-55" value="difficulty" style="html=1;verticalAlign=bottom;endArrow=open;dashed=1;endSize=8;edgeStyle=elbowEdgeStyle;elbow=vertical;curved=0;rounded=0;" edge="1" parent="1" target="aM9ryv3xv72pqoxQDRHE-5">
          <mxGeometry x="0.8629" relative="1" as="geometry">
            <mxPoint x="830" y="430" as="targetPoint" />
            <Array as="points">
              <mxPoint x="925" y="430" />
            </Array>
            <mxPoint x="1159.5" y="430" as="sourcePoint" />
            <mxPoint as="offset" />
          </mxGeometry>
        </mxCell>
        <mxCell id="aChDN-awmb8kZ2AirOsY-56" value="setWidth(width)" style="html=1;verticalAlign=bottom;endArrow=block;edgeStyle=elbowEdgeStyle;elbow=vertical;curved=0;rounded=0;" edge="1" parent="1" target="aChDN-awmb8kZ2AirOsY-29">
          <mxGeometry x="-0.94" relative="1" as="geometry">
            <mxPoint x="270.5" y="450" as="sourcePoint" />
            <Array as="points">
              <mxPoint x="355.5" y="450" />
            </Array>
            <mxPoint x="1149.5" y="450" as="targetPoint" />
            <mxPoint as="offset" />
          </mxGeometry>
        </mxCell>
        <mxCell id="aChDN-awmb8kZ2AirOsY-57" value="setHeight(height)" style="html=1;verticalAlign=bottom;endArrow=open;dashed=1;endSize=8;edgeStyle=elbowEdgeStyle;elbow=vertical;curved=0;rounded=0;" edge="1" parent="1" source="aChDN-awmb8kZ2AirOsY-30">
          <mxGeometry x="0.9215" relative="1" as="geometry">
            <mxPoint x="265.25" y="470" as="targetPoint" />
            <Array as="points">
              <mxPoint x="920.25" y="470" />
            </Array>
            <mxPoint x="1154.75" y="470" as="sourcePoint" />
            <mxPoint as="offset" />
          </mxGeometry>
        </mxCell>
        <mxCell id="aChDN-awmb8kZ2AirOsY-58" value="setMines(mines)" style="html=1;verticalAlign=bottom;endArrow=block;edgeStyle=elbowEdgeStyle;elbow=vertical;curved=0;rounded=0;" edge="1" parent="1" target="aChDN-awmb8kZ2AirOsY-29">
          <mxGeometry x="-0.94" relative="1" as="geometry">
            <mxPoint x="280.5" y="490" as="sourcePoint" />
            <Array as="points">
              <mxPoint x="365.5" y="490" />
            </Array>
            <mxPoint x="1900" y="490" as="targetPoint" />
            <mxPoint as="offset" />
          </mxGeometry>
        </mxCell>
        <mxCell id="aChDN-awmb8kZ2AirOsY-63" value="reveal()" style="html=1;verticalAlign=bottom;endArrow=block;edgeStyle=elbowEdgeStyle;elbow=vertical;curved=0;rounded=0;" edge="1" parent="1" target="aChDN-awmb8kZ2AirOsY-35">
          <mxGeometry x="-0.94" relative="1" as="geometry">
            <mxPoint x="270" y="550" as="sourcePoint" />
            <Array as="points">
              <mxPoint x="355" y="550" />
            </Array>
            <mxPoint x="1909.5" y="550" as="targetPoint" />
            <mxPoint as="offset" />
          </mxGeometry>
        </mxCell>
        <mxCell id="aChDN-awmb8kZ2AirOsY-64" value="isMine, isFlagged, neighborMines" style="html=1;verticalAlign=bottom;endArrow=open;dashed=1;endSize=8;edgeStyle=elbowEdgeStyle;elbow=vertical;curved=0;rounded=0;" edge="1" parent="1" source="aChDN-awmb8kZ2AirOsY-35">
          <mxGeometry x="0.9215" relative="1" as="geometry">
            <mxPoint x="275.25" y="570" as="targetPoint" />
            <Array as="points">
              <mxPoint x="930.25" y="570" />
            </Array>
            <mxPoint x="1925" y="570" as="sourcePoint" />
            <mxPoint as="offset" />
          </mxGeometry>
        </mxCell>
        <mxCell id="aChDN-awmb8kZ2AirOsY-65" value="show board" style="html=1;verticalAlign=bottom;endArrow=block;edgeStyle=elbowEdgeStyle;elbow=vertical;curved=0;rounded=0;" edge="1" parent="1">
          <mxGeometry relative="1" as="geometry">
            <mxPoint x="275" y="580.4238095238095" as="sourcePoint" />
            <Array as="points" />
            <mxPoint x="90" y="580.29" as="targetPoint" />
          </mxGeometry>
        </mxCell>
        <mxCell id="aChDN-awmb8kZ2AirOsY-66" value="make move" style="html=1;verticalAlign=bottom;endArrow=block;edgeStyle=elbowEdgeStyle;elbow=vertical;curved=0;rounded=0;" edge="1" parent="1">
          <mxGeometry relative="1" as="geometry">
            <mxPoint x="100" y="600" as="sourcePoint" />
            <Array as="points">
              <mxPoint x="185" y="600" />
            </Array>
            <mxPoint x="270" y="600" as="targetPoint" />
          </mxGeometry>
        </mxCell>
        <mxCell id="aChDN-awmb8kZ2AirOsY-67" value="isRevealed, toggleFlag()" style="html=1;verticalAlign=bottom;endArrow=block;edgeStyle=elbowEdgeStyle;elbow=vertical;curved=0;rounded=0;" edge="1" parent="1">
          <mxGeometry x="-0.94" relative="1" as="geometry">
            <mxPoint x="270.5" y="610" as="sourcePoint" />
            <Array as="points">
              <mxPoint x="355.5" y="610" />
            </Array>
            <mxPoint x="2249.5" y="610" as="targetPoint" />
            <mxPoint as="offset" />
          </mxGeometry>
        </mxCell>
        <mxCell id="aChDN-awmb8kZ2AirOsY-68" value="isMine, isFlagged, neighborMines" style="html=1;verticalAlign=bottom;endArrow=open;dashed=1;endSize=8;edgeStyle=elbowEdgeStyle;elbow=vertical;curved=0;rounded=0;" edge="1" parent="1">
          <mxGeometry x="0.9215" relative="1" as="geometry">
            <mxPoint x="272.63" y="630" as="targetPoint" />
            <Array as="points">
              <mxPoint x="927.63" y="630" />
            </Array>
            <mxPoint x="2247.38" y="630" as="sourcePoint" />
            <mxPoint as="offset" />
          </mxGeometry>
        </mxCell>
        <mxCell id="aChDN-awmb8kZ2AirOsY-69" value="increaseCount or decreaseCounnt()" style="html=1;verticalAlign=bottom;endArrow=block;edgeStyle=elbowEdgeStyle;elbow=vertical;curved=0;rounded=0;" edge="1" parent="1" target="aChDN-awmb8kZ2AirOsY-31">
          <mxGeometry x="-0.878" relative="1" as="geometry">
            <mxPoint x="270" y="650" as="sourcePoint" />
            <Array as="points">
              <mxPoint x="355" y="650" />
            </Array>
            <mxPoint x="1909.5" y="650" as="targetPoint" />
            <mxPoint as="offset" />
          </mxGeometry>
        </mxCell>
        <mxCell id="aChDN-awmb8kZ2AirOsY-70" value="count" style="html=1;verticalAlign=bottom;endArrow=open;dashed=1;endSize=8;edgeStyle=elbowEdgeStyle;elbow=vertical;curved=0;rounded=0;" edge="1" parent="1" target="aM9ryv3xv72pqoxQDRHE-6">
          <mxGeometry x="0.9419" relative="1" as="geometry">
            <mxPoint x="282.63" y="670" as="targetPoint" />
            <Array as="points">
              <mxPoint x="937.63" y="670" />
            </Array>
            <mxPoint x="2030" y="670" as="sourcePoint" />
            <mxPoint as="offset" />
          </mxGeometry>
        </mxCell>
        <mxCell id="aChDN-awmb8kZ2AirOsY-71" value="stop()" style="html=1;verticalAlign=bottom;endArrow=block;edgeStyle=elbowEdgeStyle;elbow=vertical;curved=0;rounded=0;" edge="1" parent="1">
          <mxGeometry x="-0.8519" relative="1" as="geometry">
            <mxPoint x="270" y="700" as="sourcePoint" />
            <Array as="points">
              <mxPoint x="355" y="700" />
            </Array>
            <mxPoint x="810" y="700" as="targetPoint" />
            <mxPoint as="offset" />
          </mxGeometry>
        </mxCell>
        <mxCell id="aChDN-awmb8kZ2AirOsY-72" value="passedTime" style="html=1;verticalAlign=bottom;endArrow=open;dashed=1;endSize=8;edgeStyle=elbowEdgeStyle;elbow=vertical;curved=0;rounded=0;" edge="1" parent="1" source="aChDN-awmb8kZ2AirOsY-9">
          <mxGeometry x="0.8711" relative="1" as="geometry">
            <mxPoint x="270" y="720" as="targetPoint" />
            <Array as="points">
              <mxPoint x="932.63" y="720" />
            </Array>
            <mxPoint x="2025" y="720" as="sourcePoint" />
            <mxPoint as="offset" />
          </mxGeometry>
        </mxCell>
        <mxCell id="aChDN-awmb8kZ2AirOsY-73" value="update(time)" style="html=1;verticalAlign=bottom;endArrow=block;edgeStyle=elbowEdgeStyle;elbow=vertical;curved=0;rounded=0;" edge="1" parent="1">
          <mxGeometry x="-0.7727" relative="1" as="geometry">
            <mxPoint x="270" y="740" as="sourcePoint" />
            <Array as="points">
              <mxPoint x="355" y="740" />
            </Array>
            <mxPoint x="710" y="740" as="targetPoint" />
            <mxPoint as="offset" />
          </mxGeometry>
        </mxCell>
        <mxCell id="aChDN-awmb8kZ2AirOsY-74" value="bestTime" style="html=1;verticalAlign=bottom;endArrow=open;dashed=1;endSize=8;edgeStyle=elbowEdgeStyle;elbow=horizontal;curved=0;rounded=0;" edge="1" parent="1">
          <mxGeometry x="0.8182" relative="1" as="geometry">
            <mxPoint x="270" y="760" as="targetPoint" />
            <Array as="points" />
            <mxPoint x="710" y="760" as="sourcePoint" />
            <mxPoint as="offset" />
          </mxGeometry>
        </mxCell>
        <mxCell id="aChDN-awmb8kZ2AirOsY-75" value="isFinished()" style="html=1;verticalAlign=bottom;endArrow=block;edgeStyle=elbowEdgeStyle;elbow=vertical;curved=0;rounded=0;" edge="1" parent="1">
          <mxGeometry x="-0.2727" relative="1" as="geometry">
            <mxPoint x="270" y="800" as="sourcePoint" />
            <Array as="points">
              <mxPoint x="355" y="800" />
            </Array>
            <mxPoint x="380" y="800" as="targetPoint" />
            <mxPoint as="offset" />
          </mxGeometry>
        </mxCell>
        <mxCell id="aChDN-awmb8kZ2AirOsY-76" value="bool" style="html=1;verticalAlign=bottom;endArrow=open;dashed=1;endSize=8;edgeStyle=elbowEdgeStyle;elbow=horizontal;curved=0;rounded=0;" edge="1" parent="1">
          <mxGeometry x="0.0064" relative="1" as="geometry">
            <mxPoint x="270" y="820" as="targetPoint" />
            <Array as="points" />
            <mxPoint x="380" y="820" as="sourcePoint" />
            <mxPoint as="offset" />
          </mxGeometry>
        </mxCell>
        <mxCell id="aChDN-awmb8kZ2AirOsY-77" value="show game result" style="html=1;verticalAlign=bottom;endArrow=block;edgeStyle=elbowEdgeStyle;elbow=vertical;curved=0;rounded=0;" edge="1" parent="1">
          <mxGeometry relative="1" as="geometry">
            <mxPoint x="265" y="870.4238095238095" as="sourcePoint" />
            <Array as="points" />
            <mxPoint x="80" y="870.29" as="targetPoint" />
          </mxGeometry>
        </mxCell>
        <mxCell id="aChDN-awmb8kZ2AirOsY-78" value="restart game or exit" style="html=1;verticalAlign=bottom;endArrow=block;edgeStyle=elbowEdgeStyle;elbow=vertical;curved=0;rounded=0;" edge="1" parent="1">
          <mxGeometry relative="1" as="geometry">
            <mxPoint x="90" y="920" as="sourcePoint" />
            <Array as="points">
              <mxPoint x="175" y="920" />
            </Array>
            <mxPoint x="260" y="920" as="targetPoint" />
          </mxGeometry>
        </mxCell>
      </root>
    </mxGraphModel>
  </diagram>
</mxfile>
